<svg width="105" height="105" viewBox="0 0 105 105" fill="none" xmlns="http://www.w3.org/2000/svg">
<g clip-path="url(#clip0_937_252)">
<path d="M85.3125 0H19.6875C8.81439 0 0 8.81439 0 19.6875V85.3125C0 96.1856 8.81439 105 19.6875 105H85.3125C96.1856 105 105 96.1856 105 85.3125V19.6875C105 8.81439 96.1856 0 85.3125 0Z" fill="#7B61FF"/>
<path d="M12.7666 59.5831V53.3331L37.7666 42.3246V49.5156L20.6501 56.3871L20.8809 56.0142V56.902L20.6501 56.5291L37.7666 63.4006V70.5916L12.7666 59.5831ZM61.1153 32.9318L49.3966 76.4688H42.8802L54.599 32.9318H61.1153ZM91.2334 59.5831L66.2334 70.5916V63.4006L83.3499 56.5291L83.1191 56.902V56.0142L83.3499 56.3871L66.2334 49.5156V42.3246L91.2334 53.3331V59.5831Z" fill="white"/>
</g>
<defs>
<clipPath id="clip0_937_252">
<rect width="105" height="105" fill="white"/>
</clipPath>
</defs>
</svg>
