<svg width="105" height="105" viewBox="0 0 105 105" fill="none" xmlns="http://www.w3.org/2000/svg">
<g clip-path="url(#clip0_937_252)">
<path d="M85.3125 0H19.6875C8.81439 0 0 8.81439 0 19.6875V85.3125C0 96.1856 8.81439 105 19.6875 105H85.3125C96.1856 105 105 96.1856 105 85.3125V19.6875C105 8.81439 96.1856 0 85.3125 0Z" fill="#7B61FF"/>
<path d="M7.96289 53.6974V50.1974L21.9629 44.0327V48.0597L12.3777 51.9077L12.5069 51.6989V52.196L12.3777 51.9872L21.9629 55.8352V59.8622L7.96289 53.6974ZM26.2484 62V41.6364H34.4018C35.8999 41.6364 37.1494 41.8584 38.1504 42.3026C39.1513 42.7467 39.9037 43.3632 40.4075 44.152C40.9113 44.9342 41.1632 45.8357 41.1632 46.8565C41.1632 47.652 41.0041 48.3513 40.6859 48.9545C40.3677 49.5511 39.9302 50.0417 39.3734 50.4261C38.8232 50.804 38.1935 51.0724 37.4842 51.2315V51.4304C38.2598 51.4635 38.9856 51.6823 39.6618 52.0866C40.3445 52.491 40.898 53.0578 41.3223 53.7869C41.7465 54.5095 41.9586 55.3712 41.9586 56.3722C41.9586 57.4527 41.6902 58.4171 41.1532 59.2656C40.6229 60.1075 39.8374 60.7737 38.7967 61.2642C37.756 61.7547 36.4733 62 34.9487 62H26.2484ZM30.5538 58.4801H34.0637C35.2636 58.4801 36.1386 58.2514 36.6887 57.794C37.2389 57.33 37.514 56.7135 37.514 55.9446C37.514 55.3812 37.3781 54.884 37.1064 54.4531C36.8346 54.0223 36.4468 53.6842 35.943 53.4389C35.4458 53.1937 34.8526 53.071 34.1632 53.071H30.5538V58.4801ZM30.5538 50.1577H33.7456C34.3355 50.1577 34.8592 50.0549 35.3166 49.8494C35.7806 49.6373 36.1452 49.339 36.4103 48.9545C36.6821 48.5701 36.818 48.1094 36.818 47.5724C36.818 46.8366 36.5562 46.2434 36.0325 45.7926C35.5154 45.3419 34.7797 45.1165 33.8251 45.1165H30.5538V50.1577ZM44.7601 41.6364H50.0698L55.6777 55.3182H55.9164L61.5243 41.6364H66.834V62H62.6578V48.7457H62.4888L57.2189 61.9006H54.3752L49.1053 48.696H48.9363V62H44.7601V41.6364ZM79.171 40.6818L72.6085 65.0625H68.9593L75.5218 40.6818H79.171ZM96.0371 55.6065L82.0371 61.7713V57.7443L91.6223 53.8963L91.4931 54.1051V53.608L91.6223 53.8168L82.0371 49.9688V45.9418L96.0371 52.1065V55.6065Z" fill="white"/>
</g>
<defs>
<clipPath id="clip0_937_252">
<rect width="105" height="105" fill="white"/>
</clipPath>
</defs>
</svg>
